<svg width="33" height="33" viewBox="0 0 33 33" fill="none" xmlns="http://www.w3.org/2000/svg" role="img" aria-labelledby="facebook-logo-icon"><title id="facebook-logo-icon">Facebook logo</title><rect width="33" height="33" rx="4" fill="#0076FA"></rect><path d="M28 16.0672C28 9.95496 23.0751 5 17 5C10.9249 5 6 9.95496 6 16.0672C6 21.5912 10.0225 26.1697 15.2813 27V19.2663H12.4883V16.0672H15.2813V13.629C15.2813 10.8553 16.9235 9.32313 19.4361 9.32313C20.6396 9.32313 21.8984 9.53929 21.8984 9.53929V12.2629H20.5114C19.1449 12.2629 18.7188 13.116 18.7188 13.9912V16.0672H21.7695L21.2818 19.2663H18.7188V27C23.9775 26.1697 28 21.5912 28 16.0672Z" fill="white"></path></svg>