<svg width="33" height="33" viewBox="0 0 33 33" fill="none" xmlns="http://www.w3.org/2000/svg"><path d="M29.3301 0.25H4.33008C2.12094 0.25 0.330078 2.04086 0.330078 4.25V29.25C0.330078 31.4591 2.12094 33.25 4.33008 33.25H29.3301C31.5392 33.25 33.3301 31.4591 33.3301 29.25V4.25C33.3301 2.04086 31.5392 0.25 29.3301 0.25Z" fill="black"></path><path d="M18.7124 15.7893L25.4133 8H23.8254L18.0071 14.7633L13.3599 8H8L15.0274 18.2273L8 26.3955H9.58799L15.7324 19.2533L20.6401 26.3955H26L18.7121 15.7893H18.7124ZM16.5375 18.3174L15.8255 17.299L10.1602 9.19542H12.5992L17.1712 15.7353L17.8832 16.7537L23.8262 25.2545H21.3871L16.5375 18.3178V18.3174Z" fill="white"></path></svg>